# xmcd
#
# Track frame offsets:
#	150
#	19158
#	31050
#	47001
#	75567
#	84545
#	115804
#	140982
#	158244
#	190420
#	202711
#
# Disc length: 2830 seconds
#
# Revision: 0
# Processed by: cddbd v1.4PL0 Copyright (c) Steve Scherf et al.
# Submitted via: audiograbber 1.80.04
#
DISCID=880b0c0b
DTITLE=Christopher Auld - Atmosphere
DYEAR=1900
DGENRE=
TTITLE0=Xdance2
TTITLE1=Up
TTITLE2=One
TTITLE3=Atmosphere
TTITLE4=Positive
TTITLE5=Skylab
TTITLE6=Queue
TTITLE7=Bangkok
TTITLE8=7Min7Sec
TTITLE9=Coma
TTITLE10=Highland
EXTD=
EXTT0=
EXTT1=
EXTT2=
EXTT3=
EXTT4=
EXTT5=
EXTT6=
EXTT7=
EXTT8=
EXTT9=
EXTT10=
PLAYORDER=
